<?xml version="1.0" encoding="UTF-8"?>
<svg id="Calque_1" xmlns="http://www.w3.org/2000/svg" version="1.1" viewBox="0 0 285.9 247.8">
  <!-- Generator: Adobe Illustrator 29.1.0, SVG Export Plug-In . SVG Version: 2.1.0 Build 142)  -->
  <defs>
    <style>
      .st0 {
        font-family: Montserrat-ExtraBold, Montserrat;
        font-weight: 700;
      }

      .st0, .st1, .st2 {
        fill: #231f20;
      }

      .st0, .st2 {
        display: none;
      }

      .st3 {
        font-size: 22.2px;
      }

      .st4 {
        font-size: 34.1px;
        letter-spacing: 0em;
      }
    </style>
  </defs>
  <rect class="st2" x="64.6" y="127" width="165.7" height="79.3"/>
  <text class="st0" transform="translate(74.3 175.5)"><tspan class="st3"><tspan x="0" y="0">AMETHYSTE</tspan></tspan><tspan class="st4"><tspan x="0" y="30.7">DESIGN</tspan></tspan></text>
  <g>
    <path class="st1" d="M46.5,106.4h-10.7l-2,5.2h-7.3l11.2-26.6h7l11.2,26.6h-7.4l-2-5.2ZM44.4,100.9l-3.3-8.5-3.3,8.5h6.5Z"/>
    <path class="st1" d="M80.8,111.6v-14.1c0,0-6.6,11.5-6.6,11.5h-3.2l-6.5-11.1v13.7h-6.6v-26.6h5.9l8.9,15.3,8.7-15.3h5.9v26.6c0,0-6.5,0-6.5,0Z"/>
    <path class="st1" d="M112.8,105.7v5.8h-20.3v-26.6h19.8v5.8h-12.8v4.5h11.2v5.6h-11.2v4.9h13.2Z"/>
    <path class="st1" d="M122.1,90.9h-7.8v-6h22.7v6h-7.7v20.6h-7.2v-20.6Z"/>
    <path class="st1" d="M163.8,85v26.6h-7.2v-10.4h-9.8v10.4h-7.2v-26.6h7.2v10h9.8v-10h7.2Z"/>
    <path class="st1" d="M182.4,102v9.5h-7.2v-9.6l-9.7-16.9h7.6l6,10.6,6-10.6h6.9l-9.7,17Z"/>
    <path class="st1" d="M191.6,109.2l2.4-5.5c2.2,1.6,5.4,2.6,8.4,2.6s4.1-.9,4.1-2.2c0-4.2-14.4-1.1-14.4-11s3.7-8.6,11.2-8.6,6.7.8,9.2,2.3l-2.2,5.6c-2.4-1.4-4.8-2-7-2s-4.1,1.1-4.1,2.4c0,4.1,14.4,1,14.4,10.8s-3.7,8.6-11.2,8.6-8.3-1.2-10.7-2.9Z"/>
    <path class="st1" d="M221.8,90.9h-7.8v-6h22.7v6h-7.7v20.6h-7.2v-20.6Z"/>
    <path class="st1" d="M259.7,105.7v5.8h-20.3v-26.6h19.8v5.8h-12.8v4.5h11.2v5.6h-11.2v4.9h13.2Z"/>
    <path class="st1" d="M25.8,121.6h18.8c13.2,0,22.2,7.9,22.2,20.4s-9,20.4-22.2,20.4h-18.8v-40.9ZM44.2,153.3c6.8,0,11.3-4.1,11.3-11.2s-4.5-11.2-11.3-11.2h-7.1v22.4h7.1Z"/>
    <path class="st1" d="M107,153.6v8.9h-32v-40.9h31.2v8.9h-20.1v6.9h17.7v8.6h-17.7v7.5h20.8Z"/>
    <path class="st1" d="M112.7,158.8l3.7-8.5c3.5,2.4,8.5,4,13.1,4s6.5-1.3,6.5-3.3c0-6.5-22.6-1.8-22.6-16.9s5.8-13.3,17.6-13.3,10.5,1.2,14.4,3.6l-3.5,8.6c-3.8-2.1-7.6-3.2-11-3.2s-6.4,1.6-6.4,3.7c0,6.2,22.6,1.6,22.6,16.6s-5.8,13.2-17.6,13.2-13-1.8-16.8-4.5Z"/>
    <path class="st1" d="M154.6,121.6h11.3v40.9h-11.3v-40.9Z"/>
    <path class="st1" d="M202.8,141.2h10v16.9c-4.6,3.4-10.9,5.2-16.7,5.2-12.7,0-21.9-8.8-21.9-21.3s9.3-21.3,22.2-21.3,13.5,2.6,17.4,7.5l-7.2,6.7c-2.7-3.1-5.9-4.6-9.7-4.6-6.8,0-11.4,4.6-11.4,11.7s4.5,11.7,11.3,11.7,4.1-.4,6.1-1.3v-11.2Z"/>
    <path class="st1" d="M260.1,121.6v40.9h-9.3l-17.6-21.8v21.8h-11v-40.9h9.3l17.6,21.8v-21.8h11Z"/>
  </g>
</svg>